<?xml version="1.0" encoding="utf-8"?>
<!-- Generator: Adobe Illustrator 15.1.0, SVG Export Plug-In . SVG Version: 6.00 Build 0)  -->
<!DOCTYPE svg PUBLIC "-//W3C//DTD SVG 1.1//EN" "http://www.w3.org/Graphics/SVG/1.1/DTD/svg11.dtd">
<svg version="1.1" xmlns="http://www.w3.org/2000/svg" xmlns:xlink="http://www.w3.org/1999/xlink" x="0px" y="0px"
	 width="645.879px" height="141.177px" viewBox="0 0 645.879 141.177" enable-background="new 0 0 645.879 141.177"
	 xml:space="preserve">
<g id="Layer_1">
</g>
<g id="Recruit">
	<g>
		<g id="Icon_5_">
			<path fill="#FFFFFF" d="M48.069,64.445l-0.021-22.809c0-8.109-6.405-14.74-14.493-15.234l9.81,0.032
				c11.513,0,20.844,9.211,20.844,20.574l0.017,17.438H48.069L48.069,64.445L48.069,64.445z"/>
			<path fill="#FFFFFF" d="M75.108,48.291l22.809-0.021c8.109,0,14.74-6.405,15.234-14.494l-0.032,9.81
				c0,11.512-9.211,20.844-20.573,20.844l-17.438,0.016V48.291L75.108,48.291L75.108,48.291z"/>
			<path fill="#FFFFFF" d="M64.225,91.521l-22.81,0.021c-8.108,0-14.74,6.405-15.234,14.493l0.032-9.81
				c0-11.513,9.211-20.843,20.573-20.843l17.438-0.018V91.521L64.225,91.521L64.225,91.521z"/>
			<path fill="#FFFFFF" d="M1.001,2.002l42.343,0.043c11.512,0,20.845,9.211,20.845,20.573l-0.007,8.455
				c-1.095-7.373-7.527-13.032-15.3-13.032l-31.708-0.032l0.032,31.196c0,8.108,6.405,14.74,14.492,15.235l-9.809-0.033
				c-11.513,0-20.843-9.212-20.843-20.574L1.001,2.002L1.001,2.002L1.001,2.002z"/>
			<path fill="#FFFFFF" d="M138.336,2.002L95.993,2.045c-11.511,0-20.844,9.211-20.844,20.573l0.007,8.455
				c1.095-7.373,7.526-13.032,15.3-13.032l31.708-0.032l-0.033,31.196c0,8.108-6.405,14.74-14.492,15.235l9.809-0.033
				c11.513,0,20.843-9.212,20.843-20.574L138.336,2.002L138.336,2.002L138.336,2.002z"/>
			<path fill="#FFFFFF" d="M1.001,137.867l42.343-0.043c11.512,0,20.845-9.212,20.845-20.574l-0.007-8.454
				c-1.095,7.372-7.527,13.032-15.3,13.032l-31.708,0.032l0.032-31.196c0-8.109,6.405-14.74,14.492-15.235l-9.809,0.033
				c-11.513,0-20.843,9.212-20.843,20.575L1.001,137.867L1.001,137.867L1.001,137.867z"/>
			<path fill="#FFFFFF" d="M138.336,137.867l-42.343-0.043c-11.511,0-20.844-9.212-20.844-20.574l0.007-8.454
				c1.095,7.372,7.526,13.032,15.3,13.032l31.708,0.032l-0.033-31.196c0-8.109-6.405-14.74-14.492-15.235l9.809,0.033
				c11.513,0,20.843,9.212,20.843,20.575L138.336,137.867L138.336,137.867L138.336,137.867z"/>
			<path fill="#FFFFFF" d="M91.304,75.423l0.024,22.81c0,8.108,6.404,14.739,14.492,15.235l-9.81-0.034
				c-11.511,0-20.844-9.209-20.844-20.574l-0.015-17.437H91.304L91.304,75.423L91.304,75.423z"/>
		</g>
		<g>
			<path fill="#FFFFFF" d="M232.245,100.629c-1.408,0.256-2.911,0.432-4.509,0.527c-1.599,0.096-3.07,0.143-4.413,0.143
				l-3.646-46.238c-0.064-0.703-0.096-1.662-0.096-2.878c0-1.214,0-2.303,0-3.262h-0.671c-0.129,1.151-0.288,2.287-0.48,3.405
				c-0.192,1.12-0.417,2.032-0.671,2.735l-14.486,45.951h-8.73l-14.582-45.951c-0.256-0.703-0.465-1.631-0.623-2.783
				c-0.161-1.151-0.305-2.27-0.432-3.357h-0.671c0,0.896-0.017,1.999-0.048,3.31c-0.033,1.311-0.081,2.254-0.144,2.831
				l-4.221,46.238c-1.216,0-2.575-0.047-4.077-0.143c-1.503-0.096-2.798-0.271-3.885-0.527c0.768-10.746,1.663-21.408,2.686-31.994
				c1.022-10.584,2.174-21.345,3.454-32.282h10.552l14.965,46.815c0.319,0.959,0.607,2.08,0.864,3.357
				c0.254,1.281,0.447,2.559,0.576,3.838h0.671c0.127-1.279,0.288-2.543,0.48-3.789c0.191-1.248,0.446-2.414,0.767-3.502
				l14.774-46.719h10.744c1.214,10.873,2.317,21.633,3.31,32.282C230.693,79.283,231.54,89.947,232.245,100.629z"/>
			<path fill="#FFFFFF" d="M284.719,96.023c0,2.176-0.623,3.709-1.87,4.605c-1.248,0.895-2.83,1.342-4.749,1.342
				c-2.048,0-3.87-0.352-5.468-1.055c-1.599-0.703-2.815-2.078-3.646-4.125h-0.383c-2.303,1.855-4.59,3.182-6.859,3.98
				c-2.271,0.799-4.653,1.199-7.147,1.199c-4.35,0-7.866-1.104-10.552-3.309c-2.686-2.207-4.029-5.676-4.029-10.41
				c0-5.307,1.502-9.08,4.509-11.318c3.005-2.238,7.514-3.486,13.527-3.742l9.977-0.383V59.857c-1.215-0.703-2.782-1.248-4.7-1.631
				c-1.919-0.385-3.838-0.576-5.756-0.576c-2.047,0-4.158,0.191-6.332,0.576c-2.175,0.383-3.966,0.896-5.372,1.535
				c-0.321-1.088-0.576-2.352-0.768-3.791c-0.192-1.438-0.321-2.797-0.384-4.077c2.174-0.639,4.317-1.118,6.428-1.438
				c2.11-0.319,4.38-0.48,6.811-0.48c3.325,0,6.667,0.4,10.025,1.199c3.358,0.801,6.123,2.031,8.298,3.693v35.305
				c0,1.215,0.207,2.062,0.624,2.541c0.415,0.48,1.166,0.721,2.254,0.721h5.564V96.023z M268.026,78.852l-10.265,0.48
				c-3.391,0.129-5.741,0.814-7.051,2.062c-1.312,1.246-1.967,3.342-1.967,6.283c0,2.623,0.591,4.494,1.774,5.611
				c1.183,1.119,3.118,1.68,5.804,1.68c1.982,0,4.044-0.352,6.188-1.057c2.142-0.703,3.981-1.598,5.516-2.686V78.852z"/>
			<path fill="#FFFFFF" d="M322.611,99.094c-0.831,0.447-1.791,0.863-2.877,1.246c-1.088,0.385-2.224,0.688-3.406,0.912
				c-1.184,0.223-2.35,0.398-3.501,0.527c-1.151,0.127-2.206,0.191-3.166,0.191c-7.42,0-13.015-2.094-16.789-6.283
				c-3.774-4.188-5.66-10.471-5.66-18.852c0-4.795,0.559-8.889,1.679-12.279c1.118-3.389,2.653-6.17,4.605-8.346
				c1.95-2.174,4.204-3.756,6.763-4.749c2.557-0.99,5.276-1.487,8.154-1.487c2.046,0,4.284,0.161,6.715,0.48
				c2.43,0.32,4.541,0.832,6.332,1.534c-0.129,1.28-0.352,2.655-0.672,4.125c-0.32,1.473-0.705,2.846-1.15,4.125
				c-1.664-0.703-3.422-1.215-5.277-1.535c-1.855-0.318-3.679-0.479-5.468-0.479c-1.918,0-3.662,0.287-5.228,0.863
				c-1.568,0.574-2.878,1.52-3.934,2.83c-1.055,1.311-1.871,3.055-2.446,5.229c-0.575,2.174-0.863,4.893-0.863,8.154
				c0,3.645,0.271,6.652,0.815,9.018c0.543,2.365,1.358,4.254,2.446,5.66c1.087,1.406,2.478,2.383,4.173,2.926
				c1.694,0.543,3.693,0.814,5.996,0.814c1.854,0,3.772-0.223,5.756-0.672c1.98-0.445,3.708-1.117,5.18-2.014
				c0.385,1.215,0.752,2.527,1.104,3.934S322.482,97.75,322.611,99.094z"/>
			<path fill="#FFFFFF" d="M356.187,50.456c0,1.472-0.08,2.974-0.24,4.509c-0.16,1.533-0.367,3.037-0.623,4.508
				c-0.512-0.127-1.15-0.254-1.918-0.383s-1.568-0.193-2.398-0.193c-1.727,0-3.471,0.289-5.229,0.865
				c-1.76,0.574-3.727,1.918-5.9,4.027v37.223h-8.537V51.319c1.15-0.192,2.541-0.336,4.172-0.432
				c1.631-0.097,3.086-0.145,4.365-0.145v6.332h0.48c1.342-1.662,2.59-2.957,3.74-3.885c1.152-0.926,2.207-1.631,3.166-2.111
				s1.855-0.782,2.687-0.911c0.831-0.128,1.631-0.192,2.398-0.192c0.511,0,1.134,0.033,1.87,0.097
				C354.955,50.136,355.612,50.263,356.187,50.456z"/>
			<path fill="#FFFFFF" d="M402.906,75.973c0,4.352-0.561,8.154-1.68,11.416s-2.654,5.965-4.604,8.107
				c-1.953,2.143-4.254,3.758-6.908,4.844c-2.654,1.088-5.516,1.631-8.586,1.631c-3.199,0-6.107-0.496-8.73-1.486
				s-4.859-2.543-6.715-4.652c-1.855-2.111-3.295-4.797-4.316-8.059c-1.023-3.262-1.535-7.195-1.535-11.801
				c0-4.156,0.527-7.85,1.583-11.08c1.056-3.229,2.542-5.947,4.46-8.154c1.92-2.205,4.205-3.885,6.859-5.036
				c2.654-1.151,5.549-1.728,8.682-1.728c3.07,0,5.916,0.465,8.539,1.392c2.621,0.928,4.893,2.432,6.811,4.508
				c1.92,2.08,3.422,4.766,4.51,8.059C402.361,67.229,402.906,71.242,402.906,75.973z M393.697,75.973
				c0-3.453-0.289-6.361-0.863-8.729c-0.576-2.365-1.393-4.27-2.447-5.709s-2.336-2.477-3.838-3.117
				c-1.502-0.639-3.213-0.959-5.133-0.959c-1.791,0-3.438,0.287-4.939,0.863c-1.504,0.574-2.799,1.582-3.885,3.021
				c-1.09,1.439-1.936,3.342-2.543,5.707c-0.609,2.367-0.912,5.342-0.912,8.922c0,3.52,0.256,6.461,0.768,8.826
				c0.512,2.367,1.279,4.27,2.303,5.709c1.023,1.438,2.287,2.463,3.789,3.07s3.215,0.91,5.133,0.91s3.66-0.303,5.229-0.91
				c1.566-0.607,2.893-1.633,3.98-3.07c1.088-1.439,1.92-3.342,2.496-5.709C393.408,82.434,393.697,79.492,393.697,75.973z"/>
			<path fill="#FFFFFF" d="M468.042,101.012V65.613c0-2.365-0.592-4.27-1.775-5.709s-3.246-2.158-6.188-2.158
				c-2.238,0-4.205,0.352-5.898,1.055c-1.695,0.705-3.375,1.727-5.037,3.07v39.141h-8.635V65.613c0-2.43-0.592-4.35-1.773-5.756
				c-1.186-1.406-3.215-2.111-6.092-2.111c-1.984,0-3.871,0.336-5.66,1.008c-1.791,0.672-3.551,1.646-5.277,2.926v39.332h-8.537
				V51.319c1.15-0.192,2.541-0.336,4.172-0.432c1.631-0.097,3.086-0.145,4.365-0.145v4.892h0.48c2.303-2.045,4.443-3.5,6.428-4.364
				c1.98-0.863,4.252-1.296,6.811-1.296c2.557,0,4.859,0.513,6.908,1.535c2.045,1.025,3.611,2.751,4.699,5.181
				c2.688-2.494,5.213-4.237,7.58-5.229c2.365-0.99,4.955-1.487,7.77-1.487c1.982,0,3.838,0.257,5.564,0.768
				c1.727,0.513,3.246,1.36,4.557,2.542c1.311,1.184,2.334,2.75,3.07,4.701c0.734,1.951,1.104,4.334,1.104,7.146v35.879H468.042z"/>
			<path fill="#FFFFFF" d="M530.302,96.023c0,2.176-0.623,3.709-1.869,4.605c-1.248,0.895-2.83,1.342-4.75,1.342
				c-2.047,0-3.869-0.352-5.469-1.055c-1.598-0.703-2.814-2.078-3.645-4.125h-0.383c-2.303,1.855-4.59,3.182-6.859,3.98
				c-2.271,0.799-4.654,1.199-7.148,1.199c-4.35,0-7.865-1.104-10.553-3.309c-2.686-2.207-4.029-5.676-4.029-10.41
				c0-5.307,1.502-9.08,4.51-11.318c3.006-2.238,7.514-3.486,13.527-3.742l9.977-0.383V59.857c-1.217-0.703-2.783-1.248-4.701-1.631
				c-1.918-0.385-3.838-0.576-5.756-0.576c-2.047,0-4.158,0.191-6.332,0.576c-2.174,0.383-3.965,0.896-5.371,1.535
				c-0.322-1.088-0.576-2.352-0.768-3.791c-0.193-1.438-0.322-2.797-0.385-4.077c2.174-0.639,4.318-1.118,6.428-1.438
				c2.111-0.319,4.381-0.48,6.811-0.48c3.326,0,6.668,0.4,10.025,1.199c3.357,0.801,6.123,2.031,8.299,3.693v35.305
				c0,1.215,0.207,2.062,0.623,2.541c0.416,0.48,1.166,0.721,2.254,0.721h5.564V96.023z M513.611,78.852l-10.266,0.48
				c-3.391,0.129-5.74,0.814-7.051,2.062c-1.311,1.246-1.967,3.342-1.967,6.283c0,2.623,0.592,4.494,1.775,5.611
				c1.182,1.119,3.117,1.68,5.803,1.68c1.982,0,4.045-0.352,6.189-1.057c2.141-0.703,3.98-1.598,5.516-2.686V78.852z"/>
			<path fill="#FFFFFF" d="M561.865,99.957c-1.281,0.641-2.816,1.135-4.605,1.486c-1.791,0.352-3.357,0.527-4.701,0.527
				c-5.18,0-8.906-1.309-11.176-3.934c-2.271-2.621-3.406-6.715-3.406-12.279v-27.34h-5.947v-7.483h5.947V40.19
				c1.152-0.318,2.559-0.623,4.221-0.911c1.664-0.287,3.133-0.494,4.414-0.623v12.279h12.662c0,2.495-0.191,4.989-0.574,7.483
				h-12.088V86.43c0,3.008,0.512,5.006,1.535,5.996c1.021,0.992,2.748,1.486,5.18,1.486c1.15,0,2.414-0.143,3.789-0.432
				c1.375-0.287,2.543-0.654,3.502-1.102c0.318,1.088,0.576,2.301,0.768,3.645S561.736,98.678,561.865,99.957z"/>
			<path fill="#FFFFFF" d="M578.269,37.121c0,1.472-0.418,2.719-1.248,3.741c-0.832,1.023-2.109,1.535-3.838,1.535
				c-1.662,0-2.91-0.527-3.74-1.583c-0.832-1.056-1.248-2.286-1.248-3.693c0-1.471,0.416-2.749,1.248-3.837
				c0.83-1.087,2.109-1.631,3.838-1.631c1.662,0,2.908,0.544,3.74,1.631C577.851,34.372,578.269,35.65,578.269,37.121z
				 M568.962,101.012V50.935h8.539v50.077H568.962z"/>
			<path fill="#FFFFFF" d="M637.802,101.268c-2.129,0.168-4.096,0.254-5.898,0.254l-15.479-25.416
				c-0.504-0.748-0.92-1.496-1.244-2.246c-0.324-0.748-0.668-1.496-1.027-2.246h-0.65c-0.361,0.816-0.686,1.566-0.973,2.246
				c-0.291,0.68-0.688,1.428-1.191,2.246l-15.586,25.416c-0.721,0-1.588-0.018-2.598-0.051c-1.01-0.035-2.02-0.102-3.029-0.203
				c-1.012-0.102-2.002-0.205-2.977-0.307s-1.824-0.256-2.543-0.459l22.402-34.912l-21.213-32.87
				c1.875-0.271,3.932-0.475,6.17-0.612c2.234-0.136,4.184-0.204,5.844-0.204l14.721,23.682c0.504,0.75,0.9,1.447,1.189,2.094
				c0.287,0.646,0.541,1.275,0.758,1.889h0.648c0.289-0.68,0.578-1.361,0.867-2.043c0.287-0.68,0.684-1.393,1.189-2.143
				l14.07-23.479c1.516,0,3.391,0.068,5.629,0.204c2.234,0.138,4.111,0.342,5.627,0.612L621.73,65.283l21.861,35.219
				C641.861,100.844,639.929,101.096,637.802,101.268z"/>
		</g>
	</g>
</g>
</svg>
