<?xml version="1.0" encoding="utf-8"?>
<!DOCTYPE svg PUBLIC "-//W3C//DTD SVG 1.1//EN" "http://www.w3.org/Graphics/SVG/1.1/DTD/svg11.dtd">
<svg version="1.1" xmlns="http://www.w3.org/2000/svg" xmlns:xlink="http://www.w3.org/1999/xlink" width="256px" height="195.704px" viewBox="0 0 256 195.704" xml:space="preserve">
<polygon fill="#1E376C" points="175.342,120.848 187.228,104.62 171.946,83.75 144.33,83.75 173.423,123.471 							"/>
<polygon fill="#00A7E1" points="220.112,82.585 229.317,90.07 202.961,126.053 202.874,125.938 202.874,125.946,189.112,107.15 175.342,125.946 124.25,195.704 151.864,195.704 189.1,144.868 202.863,163.66 216.677,144.79,216.668,144.771 246.624,104.144 255.381,111.264 255.381,69.838"/>
<polygon fill="#1E376C" points="216.668,149.871 216.677,149.888 204.724,166.212 223.993,192.517 251.609,192.517,218.526,147.345"/>
<path fill="#00A7E1" d="M225.983,18.72c-24.373-10.835-40.094-5.754-50.566-0.1C163.71,8.621,138.689-6.542,101.972,3.428c-36.42,9.885-49.043,35.269-53.373,50.214c-8.744,0.197-20.944,2.405-31.607,11.328C3.651,76.142,0.661,88.607,0.156,95.752h23.103c0.587-3.077,2.477-8.18,8.462-13.188c9.941-8.32,23.497-5.594,23.533-5.583l13.135,3.004l0.877-13.44c0.019-0.312,2.436-31.132,38.714-40.979c36.36-9.861,56.202,13.888,56.977,14.835l7.571,9.597c0,0,14.823-22.596,42.084-12.259c19.582,8.624,21.597,28.592,20.887,34.754l20.346-7.354C253.128,49.979,250.361,29.55,225.983,18.72z"/>
<path fill="#1E376C" d="M0.156,105.803H27.49v9.263h0.281c5.725-8.055,14.026-11.01,24.331-11.01c8.012,0,16.601,3.893,20.031,10.874c1.142-0.803,6.865-10.874,25.327-10.874c19.035,0,25.472,12.351,25.472,23.627v47.794H94.596v-37.73c0-6.574-0.709-12.476-9.298-12.476c-7.154,0-9.588,5.23-9.588,12.476v37.73H47.373v-37.73c0-6.574-0.713-12.476-9.294-12.476c-7.155,0-9.593,5.23-9.593,12.476v37.73H0.156V105.803z"/>
</svg>
