<?xml version="1.0" encoding="utf-8"?>
<!DOCTYPE svg PUBLIC "-//W3C//DTD SVG 1.1//EN" "http://www.w3.org/Graphics/SVG/1.1/DTD/svg11.dtd">
<svg version="1.1" xmlns="http://www.w3.org/2000/svg" xmlns:xlink="http://www.w3.org/1999/xlink" width="281.408px" height="75px" xml:space="preserve" viewBox="0 0 281.408 75">
<polygon fill="#00A7E1" points="250.629,46.145 255.174,39.936 249.33,31.958 238.772,31.958 249.895,47.146"/>
<polygon fill="#FFFFFF" points="267.748,31.512 271.267,34.375 261.188,48.133 261.157,48.092 261.155,48.092 255.892,40.907,250.629,48.093 231.094,74.766 241.652,74.766 255.888,55.327 261.152,62.513 266.435,55.3 266.429,55.291 277.883,39.758,281.231,42.479 281.231,26.64"/>
<polygon fill="#00A7E1" points="266.429,57.241 266.435,57.249 261.865,63.49 269.231,73.549 279.792,73.549 267.141,56.277"/>
<path fill="#FFFFFF" d="M269.993,7.094c-9.321-4.142-15.332-2.202-19.334-0.039c-4.477-3.823-14.045-9.62-28.085-5.809c-13.925,3.78-18.751,13.485-20.41,19.201c-3.342,0.075-8.005,0.918-12.082,4.33c-5.104,4.272-6.246,9.039-6.438,11.771h8.833c0.225-1.177,0.945-3.127,3.235-5.043c3.801-3.181,8.985-2.138,8.999-2.133l5.022,1.148l0.333-5.14c0.008-0.12,0.933-11.902,14.806-15.669c13.9-3.769,21.489,5.311,21.785,5.672l2.896,3.669c0,0,5.666-8.639,16.089-4.686c7.487,3.297,8.259,10.934,7.986,13.287l7.779-2.811C280.375,19.047,279.314,11.234,269.993,7.094z"/>
<path fill="#00A7E1" d="M0,40.282h8.732v2.959h0.091c1.828-2.575,4.48-3.518,7.772-3.518c2.561,0,5.303,1.245,6.399,3.474c0.367-0.257,2.195-3.474,8.094-3.474c6.081,0,8.138,3.947,8.138,7.549v15.27h-9.053V50.49c0-2.102-0.228-3.989-2.972-3.989c-2.286,0-3.063,1.673-3.063,3.989v12.053h-9.053V50.49c0-2.102-0.228-3.989-2.972-3.989c-2.285,0-3.063,1.673-3.063,3.989v12.053H0V40.282z"/>
<path fill="#00A7E1" d="M65.476,57.566c0,1.674,0.091,3.561,1.098,4.976h-9.236c-0.229-0.602-0.366-1.5-0.319-2.101h-0.093c-1.921,2.057-4.708,2.657-7.635,2.657c-4.572,0-8.366-2.057-8.366-6.732c0-7.037,8.777-6.777,13.395-7.593c1.234-0.214,2.469-0.557,2.469-1.974c0-1.502-1.508-2.057-2.972-2.057c-2.789,0-3.337,1.327-3.384,2.272h-8.412c0.137-3.129,1.783-4.978,4.114-6.005c2.285-1.029,5.305-1.287,8.092-1.287c11.339,0,11.248,4.417,11.248,8.708V57.566zM56.788,52.548c-1.097,0.516-2.331,0.814-3.567,1.071c-2.011,0.429-3.062,0.902-3.062,2.403c0,1.029,1.188,2.06,2.833,2.06c2.057,0,3.659-1.158,3.795-3.476V52.548z"/>
<path fill="#00A7E1" d="M83.856,48.73c-0.09-0.901-0.411-1.629-1.005-2.102c-0.549-0.47-1.327-0.727-2.287-0.727c-3.474,0-3.978,2.829-3.978,5.531c0,2.702,0.504,5.493,3.978,5.493c1.967,0,3.338-1.502,3.521-3.26h8.641c-0.411,3.003-1.919,5.362-4.114,6.991c-2.148,1.586-5.029,2.443-8.23,2.443c-7.132,0-12.848-4.632-12.848-11.667c0-7.033,5.716-11.708,12.848-11.708c6.218,0,11.521,2.873,12.07,9.007H83.856z"/>
<path fill="#00A7E1" d="M94.742,40.282h8.686v3.559h0.092c1.463-2.66,3.382-4.117,6.675-4.117c0.915,0,1.783,0.129,2.651,0.344v7.504c-0.913-0.299-1.736-0.557-3.565-0.557c-3.565,0-5.486,1.972-5.486,6.734v8.792h-9.052V40.282z"/>
<path fill="#00A7E1" d="M127.623,63.099c-8.916,0-12.939-5.533-12.939-11.708c0-6.178,4.024-11.667,12.939-11.667c8.915,0,12.938,5.489,12.938,11.667C140.561,57.566,136.538,63.099,127.623,63.099z M127.623,45.901c-3.429,0-3.887,3.131-3.887,5.489c0,2.359,0.458,5.534,3.887,5.534c3.429,0,3.886-3.175,3.886-5.534C131.509,49.033,131.052,45.901,127.623,45.901z"/>
<path fill="#00A7E1" d="M142.712,40.282h8.732v2.959h0.091c1.829-2.575,4.481-3.518,7.773-3.518c2.561,0,5.303,1.245,6.402,3.474c0.365-0.257,2.194-3.474,8.091-3.474c6.081,0,8.14,3.947,8.14,7.549v15.27h-9.055V50.49c0-2.102-0.228-3.989-2.972-3.989c-2.287,0-3.062,1.673-3.062,3.989v12.053h-9.053V50.49c0-2.102-0.229-3.989-2.972-3.989c-2.286,0-3.063,1.673-3.063,3.989v12.053h-9.053V40.282z"/>
<path fill="#00A7E1" d="M208.189,57.566c0,1.674,0.09,3.561,1.096,4.976h-9.234c-0.229-0.602-0.366-1.5-0.321-2.101h-0.09c-1.922,2.057-4.711,2.657-7.636,2.657c-4.571,0-8.366-2.057-8.366-6.732c0-7.037,8.777-6.777,13.395-7.593c1.236-0.214,2.47-0.557,2.47-1.974c0-1.502-1.51-2.057-2.972-2.057c-2.789,0-3.338,1.327-3.384,2.272h-8.411c0.136-3.129,1.783-4.978,4.112-6.005c2.287-1.029,5.305-1.287,8.094-1.287c11.338,0,11.248,4.417,11.248,8.708V57.566zM199.502,52.548c-1.098,0.516-2.332,0.814-3.567,1.071c-2.011,0.429-3.063,0.902-3.063,2.403c0,1.029,1.189,2.06,2.835,2.06c2.057,0,3.658-1.158,3.795-3.476V52.548z"/>
<path fill="#00A7E1" d="M222.137,40.282h4.846v5.232h-4.846v7.763c0,2.061,0.502,2.961,2.789,2.961c0.686,0,1.372-0.043,2.057-0.128v6.433c-1.828,0-3.886,0.257-5.805,0.257c-3.841,0-8.095-0.558-8.095-6.649V45.514h-4.021v-5.232h4.021v-3.568l9.055-4.813V40.282z"/>
<path fill="#00A7E1" d="M237.363,37.879h-9.053v-5.962h9.053V37.879z M228.31,40.282h9.053v22.261h-9.053V40.282z"/>
</svg>
