<?xml version="1.0" encoding="utf-8"?>
<!-- Generator: Adobe Illustrator 16.2.0, SVG Export Plug-In . SVG Version: 6.00 Build 0)  -->
<!DOCTYPE svg PUBLIC "-//W3C//DTD SVG 1.1//EN" "http://www.w3.org/Graphics/SVG/1.1/DTD/svg11.dtd">
<svg version="1.1" id="Layer_1" xmlns="http://www.w3.org/2000/svg" xmlns:xlink="http://www.w3.org/1999/xlink" x="0px" y="0px"
	 width="1280px" height="787px" viewBox="0 0 1280 787" enable-background="new 0 0 1280 787" xml:space="preserve">
<linearGradient id="Flood_gradient_1_" gradientUnits="userSpaceOnUse" x1="641.7246" y1="787" x2="641.7245" y2="-1.9995">
	<stop  offset="0" style="stop-color:#21386E"/>
	<stop  offset="1" style="stop-color:#0B9EDA"/>
</linearGradient>
<rect id="Flood_gradient" x="-0.776" y="-2" fill="url(#Flood_gradient_1_)" width="1285" height="789"/>
<g id="company_gradient">
	<g>
		<defs>
			<polygon id="SVGID_1_" points="799.589,538.279 839.132,484.324 788.318,414.964 696.518,414.964 793.22,547.014 			"/>
		</defs>
		<clipPath id="SVGID_2_">
			<use xlink:href="#SVGID_1_"  overflow="visible"/>
		</clipPath>
		<linearGradient id="SVGID_3_" gradientUnits="userSpaceOnUse" x1="621.5054" y1="822.7998" x2="621.5054" y2="137.3735">
			<stop  offset="0" style="stop-color:#21386E"/>
			<stop  offset="1" style="stop-color:#0B9EDA"/>
		</linearGradient>
		<rect x="175.786" y="137.373" clip-path="url(#SVGID_2_)" fill="url(#SVGID_3_)" width="891.438" height="685.427"/>
		
			<polygon opacity="0.05" clip-path="url(#SVGID_2_)" fill="none" stroke="#FFFFFF" stroke-width="1.5171" stroke-miterlimit="10" points="
			799.589,538.279 839.132,484.324 788.318,414.964 696.518,414.964 793.22,547.014 		"/>
	</g>
	<g>
		<defs>
			<polygon id="SVGID_4_" points="948.448,411.077 979.026,435.973 891.422,555.572 891.125,555.21 891.125,555.238 
				845.367,492.745 799.589,555.238 629.763,787.118 721.547,787.118 845.328,618.128 891.097,680.618 937.035,617.86 
				936.989,617.796 1036.569,482.749 1065.685,506.432 1065.685,368.719 			"/>
		</defs>
		<clipPath id="SVGID_5_">
			<use xlink:href="#SVGID_4_"  overflow="visible"/>
		</clipPath>
		<linearGradient id="SVGID_6_" gradientUnits="userSpaceOnUse" x1="621.5054" y1="822.7998" x2="621.5054" y2="137.3735">
			<stop  offset="0" style="stop-color:#21386E"/>
			<stop  offset="1" style="stop-color:#0B9EDA"/>
		</linearGradient>
		<rect x="175.786" y="137.373" clip-path="url(#SVGID_5_)" fill="url(#SVGID_6_)" width="891.438" height="685.427"/>
		
			<polygon opacity="0.05" clip-path="url(#SVGID_5_)" fill="none" stroke="#FFFFFF" stroke-width="1.5171" stroke-miterlimit="10" points="
			948.448,411.077 979.026,435.973 891.422,555.572 891.125,555.21 891.125,555.238 845.367,492.745 799.589,555.238 
			629.763,787.118 721.547,787.118 845.328,618.128 891.097,680.618 937.035,617.86 936.989,617.796 1036.569,482.749 
			1065.685,506.432 1065.685,368.719 		"/>
	</g>
	<g>
		<defs>
			<polygon id="SVGID_7_" points="936.989,634.765 937.035,634.83 897.301,689.102 961.36,776.53 1053.156,776.53 943.157,626.367 
							"/>
		</defs>
		<clipPath id="SVGID_8_">
			<use xlink:href="#SVGID_7_"  overflow="visible"/>
		</clipPath>
		<linearGradient id="SVGID_9_" gradientUnits="userSpaceOnUse" x1="621.5054" y1="822.7998" x2="621.5054" y2="137.3735">
			<stop  offset="0" style="stop-color:#21386E"/>
			<stop  offset="1" style="stop-color:#0B9EDA"/>
		</linearGradient>
		<rect x="175.786" y="137.373" clip-path="url(#SVGID_8_)" fill="url(#SVGID_9_)" width="891.438" height="685.427"/>
		
			<polygon opacity="0.05" clip-path="url(#SVGID_8_)" fill="none" stroke="#FFFFFF" stroke-width="1.5171" stroke-miterlimit="10" points="
			936.989,634.765 937.035,634.83 897.301,689.102 961.36,776.53 1053.156,776.53 943.157,626.367 		"/>
	</g>
	<g>
		<defs>
			<path id="SVGID_10_" d="M967.975,198.77c-81.058-36.023-133.317-19.124-168.114-0.337c-38.92-33.242-122.11-83.64-244.171-50.498
				c-121.069,32.864-163.03,117.244-177.432,166.939c-29.06,0.639-69.611,7.993-105.069,37.655
				c-44.355,37.123-54.287,78.563-55.964,102.342h76.805c1.937-10.246,8.216-27.198,28.122-43.844
				c33.054-27.674,78.109-18.607,78.251-18.569l43.646,9.981l2.908-44.688c0.063-1.029,8.103-103.481,128.711-136.213
				c120.886-32.785,186.847,46.151,189.42,49.311l25.168,31.9c0,0,49.257-75.117,139.882-40.755
				c65.12,28.667,71.816,95.052,69.463,115.542l67.625-24.443C1058.212,302.685,1048.994,234.781,967.975,198.77z"/>
		</defs>
		<clipPath id="SVGID_11_">
			<use xlink:href="#SVGID_10_"  overflow="visible"/>
		</clipPath>
		<linearGradient id="SVGID_12_" gradientUnits="userSpaceOnUse" x1="621.5054" y1="822.7998" x2="621.5054" y2="137.3735">
			<stop  offset="0" style="stop-color:#21386E"/>
			<stop  offset="1" style="stop-color:#0B9EDA"/>
		</linearGradient>
		<rect x="175.786" y="137.373" clip-path="url(#SVGID_11_)" fill="url(#SVGID_12_)" width="891.438" height="685.427"/>
		<path opacity="0.05" clip-path="url(#SVGID_11_)" fill="none" stroke="#FFFFFF" stroke-width="1.5171" stroke-miterlimit="10" d="
			M967.975,198.77c-81.058-36.023-133.317-19.124-168.114-0.337c-38.92-33.242-122.11-83.64-244.171-50.498
			c-121.069,32.864-163.03,117.244-177.432,166.939c-29.06,0.639-69.611,7.993-105.069,37.655
			c-44.355,37.123-54.287,78.563-55.964,102.342h76.805c1.937-10.246,8.216-27.198,28.122-43.844
			c33.054-27.674,78.109-18.607,78.251-18.569l43.646,9.981l2.908-44.688c0.063-1.029,8.103-103.481,128.711-136.213
			c120.886-32.785,186.847,46.151,189.42,49.311l25.168,31.9c0,0,49.257-75.117,139.882-40.755
			c65.12,28.667,71.816,95.052,69.463,115.542l67.625-24.443C1058.212,302.685,1048.994,234.781,967.975,198.77z"/>
	</g>
	<g>
		<defs>
			<path id="SVGID_13_" d="M217.225,488.253h90.856v30.796h0.956c19.024-26.746,46.611-36.588,80.87-36.588
				c26.651,0,55.188,12.948,66.597,36.151c3.792-2.676,22.818-36.151,84.208-36.151c63.261,0,84.665,41.063,84.665,78.554v158.872
				h-94.188V594.474c0-21.857-2.379-41.493-30.917-41.493c-23.788,0-31.863,17.408-31.863,41.493v125.413h-94.202V594.474
				c0-21.857-2.377-41.493-30.928-41.493c-23.769,0-31.868,17.408-31.868,41.493v125.413h-94.186V488.253z"/>
		</defs>
		<clipPath id="SVGID_14_">
			<use xlink:href="#SVGID_13_"  overflow="visible"/>
		</clipPath>
		<linearGradient id="SVGID_15_" gradientUnits="userSpaceOnUse" x1="621.5054" y1="822.7998" x2="621.5054" y2="137.3735">
			<stop  offset="0" style="stop-color:#21386E"/>
			<stop  offset="1" style="stop-color:#0B9EDA"/>
		</linearGradient>
		<rect x="175.786" y="137.373" clip-path="url(#SVGID_14_)" fill="url(#SVGID_15_)" width="891.438" height="685.427"/>
		<path opacity="0.05" clip-path="url(#SVGID_14_)" fill="none" stroke="#FFFFFF" stroke-width="3.0341" stroke-miterlimit="10" d="
			M217.225,488.253h90.856v30.796h0.956c19.024-26.746,46.611-36.588,80.87-36.588c26.651,0,55.188,12.948,66.597,36.151
			c3.792-2.676,22.818-36.151,84.208-36.151c63.261,0,84.665,41.063,84.665,78.554v158.872h-94.188V594.474
			c0-21.857-2.379-41.493-30.917-41.493c-23.788,0-31.863,17.408-31.863,41.493v125.413h-94.202V594.474
			c0-21.857-2.377-41.493-30.928-41.493c-23.769,0-31.868,17.408-31.868,41.493v125.413h-94.186V488.253z"/>
	</g>
</g>
<g id="Macromatix_logo_6_" display="none">
	<g display="inline">
		<polygon fill="#0F5F93" points="796.109,340.009 802.728,331.021 794.261,319.398 778.817,319.398 795.085,341.461 		"/>
		<polygon fill="#0F5F93" points="821.092,318.661 826.19,322.892 811.542,342.941 811.493,342.859 811.486,342.859 803.8,332.37 
			796.109,342.862 767.642,381.725 783.08,381.725 803.791,353.444 811.484,363.874 819.124,353.392 819.124,353.374 
			835.839,330.675 840.742,334.656 840.742,311.603 		"/>
		<polygon fill="#0F5F93" points="819.124,356.229 819.124,356.244 812.461,365.296 823.169,379.894 838.608,379.894 
			820.179,354.752 		"/>
		<path fill="#0F5F93" d="M824.353,283.111c-13.611-6.045-22.412-3.209-28.182-0.078c-6.562-5.558-20.477-14.017-40.938-8.427
			c-20.24,5.559-27.354,19.617-29.77,28.022c-4.821,0.021-11.608,1.259-17.603,6.289c-7.372,6.158-9.055,13.153-9.292,17.124h12.881
			c0.309-1.755,1.304-4.597,4.688-7.397c5.51-4.573,13.042-3.083,13.072-3.073l7.354,1.699l0.508-7.448
			c0.004-0.234,1.28-17.381,21.56-22.829c20.19-5.582,31.287,7.644,31.671,8.212l4.252,5.395c0,0,8.207-12.646,23.395-6.833
			c10.928,4.805,12.024,15.897,11.627,19.272l11.375-4.005C839.473,300.592,837.949,289.15,824.353,283.111z"/>
		<path fill="#0F5F93" d="M431.007,331.454h12.691v4.387h0.178c2.616-3.8,6.559-5.188,11.358-5.188c3.639,0,7.635,1.84,9.229,5.104
			c0.582-0.367,3.193-5.104,11.851-5.104c8.875,0,11.802,5.754,11.802,11.017v22.204h-13.18v-17.559
			c0-3.014-0.307-5.742-4.302-5.742c-3.375,0-4.484,2.448-4.484,5.742v17.559h-13.177v-17.559c0-3.014-0.31-5.742-4.303-5.742
			c-3.375,0-4.482,2.448-4.482,5.742v17.559h-13.181V331.454z"/>
		<path fill="#0F5F93" d="M526.427,356.667c0,2.403,0.071,5.214,1.599,7.207h-13.533c-0.321-0.799-0.448-2.134-0.423-3.032h-0.116
			c-2.798,3.032-6.88,3.833-11.094,3.833c-6.744,0-12.245-2.935-12.245-9.745c0-10.264,12.777-9.864,19.476-11.065
			c1.865-0.364,3.602-0.802,3.602-2.842c0-2.257-2.135-3.066-4.312-3.066c-4.082,0-4.879,1.907-4.92,3.347h-12.251
			c0.242-4.615,2.643-7.269,5.989-8.729c3.375-1.521,7.772-1.921,11.851-1.921c16.448,0,16.377,6.405,16.377,12.735V356.667z
			 M513.692,349.382c-1.599,0.734-3.33,1.18-5.201,1.547c-2.833,0.563-4.413,1.344-4.413,3.462c0,1.475,1.708,3.071,4.104,3.071
			c3.064,0,5.375-1.718,5.509-5.153V349.382z"/>
		<path fill="#0F5F93" d="M553.187,343.836c-0.182-1.353-0.667-2.375-1.485-3.154c-0.801-0.644-1.974-1.011-3.305-1.011
			c-5.085,0-5.862,4.166-5.862,8.079c0,3.91,0.777,7.996,5.862,7.996c2.884,0,4.881-2.253,5.1-4.728h12.616
			c-0.633,4.364-2.785,7.74-5.986,10.105c-3.197,2.36-7.338,3.552-12.01,3.552c-10.41,0-18.761-6.736-18.761-16.926
			c0-10.29,8.351-17.096,18.761-17.096c9.067,0,16.813,4.203,17.614,13.183H553.187z"/>
		<path fill="#0F5F93" d="M568.985,331.454h12.744v5.204h0.037c2.178-3.886,4.971-6.005,9.766-6.005
			c1.377,0,2.604,0.208,3.829,0.489v10.978c-1.252-0.449-2.452-0.816-5.204-0.816c-5.198,0-7.991,2.896-7.991,9.767v12.804h-13.182
			V331.454z"/>
		<path fill="#0F5F93" d="M616.97,364.675c-13.04,0-18.853-8.008-18.853-17.009c0-9.005,5.813-17.013,18.853-17.013
			c12.918,0,18.802,8.008,18.802,17.013C635.771,356.667,629.888,364.675,616.97,364.675z M616.97,339.67
			c-5.051,0-5.675,4.595-5.675,7.996c0,3.404,0.625,8.079,5.675,8.079c4.932,0,5.608-4.675,5.608-8.079
			C622.578,344.265,621.902,339.67,616.97,339.67z"/>
		<path fill="#0F5F93" d="M638.949,331.454h12.688v4.387h0.146c2.649-3.8,6.464-5.188,11.255-5.188c3.779,0,7.766,1.84,9.37,5.104
			c0.576-0.367,3.192-5.104,11.821-5.104c8.806,0,11.83,5.754,11.83,11.017v22.204h-13.182v-17.559c0-3.014-0.308-5.742-4.302-5.742
			c-3.376,0-4.484,2.448-4.484,5.742v17.559h-13.177v-17.559c0-3.014-0.324-5.742-4.326-5.742c-3.354,0-4.46,2.448-4.46,5.742
			v17.559h-13.18V331.454z"/>
		<path fill="#0F5F93" d="M734.253,356.667c0,2.403,0.151,5.214,1.601,7.207h-13.429c-0.311-0.799-0.559-2.134-0.488-3.032h-0.076
			c-2.82,3.032-6.846,3.833-11.199,3.833c-6.605,0-12.105-2.935-12.105-9.745c0-10.264,12.776-9.864,19.476-11.065
			c1.81-0.364,3.597-0.802,3.597-2.842c0-2.257-2.169-3.066-4.307-3.066c-4.078,0-4.879,1.907-4.97,3.347h-12.196
			c0.127-4.615,2.523-7.269,5.982-8.729c3.293-1.521,7.717-1.921,11.726-1.921c16.541,0,16.39,6.405,16.39,12.735V356.667z
			 M721.628,349.382c-1.599,0.734-3.388,1.18-5.195,1.547c-2.972,0.563-4.481,1.344-4.481,3.462c0,1.475,1.777,3.071,4.177,3.071
			c2.925,0,5.314-1.718,5.5-5.153V349.382z"/>
		<path fill="#0F5F93" d="M754.647,331.454h7.01v7.605h-7.01v11.335c0,3.071,0.71,4.281,4.044,4.281c0.969,0,1.983,0,2.966-0.112
			v9.311c-2.611,0-5.679,0.41-8.472,0.41c-5.595,0-11.729-0.801-11.729-9.639v-15.586h-5.938v-7.605h5.938v-5.206l13.19-6.965
			V331.454z"/>
		<path fill="#0F5F93" d="M776.749,327.961h-13.181v-8.642h13.181V327.961z M763.568,331.454h13.181v32.42h-13.181V331.454z"/>
	</g>
	<g display="inline">
		<g>
			<g>
				<g>
					<polygon fill="#FFFFFF" points="796.109,334.59 802.728,325.602 794.261,313.979 778.817,313.979 795.085,336.042 					"/>
				</g>
				<polygon fill="#FFFFFF" points="821.092,313.242 826.19,317.472 811.542,337.522 811.493,337.439 811.486,337.439 803.8,326.95 
					796.109,337.443 767.642,376.306 783.08,376.306 803.791,348.025 811.484,358.455 819.124,347.973 819.124,347.955 
					835.839,325.255 840.742,329.236 840.742,306.184 				"/>
				<g>
					<polygon fill="#FFFFFF" points="819.124,350.81 819.124,350.825 812.461,359.877 823.169,374.475 838.608,374.475 
						820.179,349.333 					"/>
				</g>
			</g>
			<path fill="#FFFFFF" d="M824.353,277.692c-13.611-6.045-22.412-3.209-28.182-0.078c-6.562-5.558-20.477-14.017-40.938-8.427
				c-20.24,5.559-27.354,19.617-29.77,28.022c-4.821,0.021-11.608,1.259-17.603,6.289c-7.372,6.158-9.055,13.153-9.292,17.124
				h12.881c0.309-1.755,1.304-4.597,4.688-7.397c5.51-4.573,13.042-3.083,13.072-3.073l7.354,1.699l0.508-7.448
				c0.004-0.234,1.28-17.381,21.56-22.829c20.19-5.582,31.287,7.644,31.671,8.212l4.252,5.395c0,0,8.207-12.646,23.395-6.833
				c10.928,4.805,12.024,15.897,11.627,19.272l11.375-4.005C839.473,295.172,837.949,283.73,824.353,277.692z"/>
			<g>
				<path fill="#FFFFFF" d="M431.007,326.035h12.691v4.387h0.178c2.616-3.8,6.559-5.188,11.358-5.188
					c3.639,0,7.635,1.84,9.229,5.104c0.582-0.367,3.193-5.104,11.851-5.104c8.875,0,11.802,5.754,11.802,11.017v22.205h-13.18
					v-17.56c0-3.014-0.307-5.742-4.302-5.742c-3.375,0-4.484,2.448-4.484,5.742v17.56h-13.177v-17.56
					c0-3.014-0.31-5.742-4.303-5.742c-3.375,0-4.482,2.448-4.482,5.742v17.56h-13.181V326.035z"/>
				<path fill="#FFFFFF" d="M526.427,351.248c0,2.403,0.071,5.214,1.599,7.207h-13.533c-0.321-0.799-0.448-2.134-0.423-3.032h-0.116
					c-2.798,3.032-6.88,3.833-11.094,3.833c-6.744,0-12.245-2.935-12.245-9.746c0-10.264,12.777-9.864,19.476-11.065
					c1.865-0.364,3.602-0.802,3.602-2.842c0-2.257-2.135-3.066-4.312-3.066c-4.082,0-4.879,1.907-4.92,3.347h-12.251
					c0.242-4.615,2.643-7.269,5.989-8.729c3.375-1.521,7.772-1.921,11.851-1.921c16.448,0,16.377,6.405,16.377,12.735V351.248z
					 M513.692,343.963c-1.599,0.734-3.33,1.18-5.201,1.547c-2.833,0.563-4.413,1.345-4.413,3.463c0,1.475,1.708,3.071,4.104,3.071
					c3.064,0,5.375-1.718,5.509-5.153V343.963z"/>
				<path fill="#FFFFFF" d="M553.187,338.417c-0.182-1.353-0.667-2.375-1.485-3.154c-0.801-0.644-1.974-1.011-3.305-1.011
					c-5.085,0-5.862,4.166-5.862,8.079c0,3.911,0.777,7.997,5.862,7.997c2.884,0,4.881-2.253,5.1-4.728h12.616
					c-0.633,4.365-2.785,7.741-5.986,10.106c-3.197,2.36-7.338,3.552-12.01,3.552c-10.41,0-18.761-6.736-18.761-16.926
					c0-10.29,8.351-17.096,18.761-17.096c9.067,0,16.813,4.203,17.614,13.183H553.187z"/>
				<path fill="#FFFFFF" d="M568.985,326.035h12.744v5.204h0.037c2.178-3.886,4.971-6.005,9.766-6.005
					c1.377,0,2.604,0.208,3.829,0.489V336.7c-1.252-0.449-2.452-0.816-5.204-0.816c-5.198,0-7.991,2.896-7.991,9.767v12.804h-13.182
					V326.035z"/>
				<path fill="#FFFFFF" d="M616.97,359.256c-13.04,0-18.853-8.008-18.853-17.009c0-9.005,5.813-17.013,18.853-17.013
					c12.918,0,18.802,8.008,18.802,17.013C635.771,351.248,629.888,359.256,616.97,359.256z M616.97,334.251
					c-5.051,0-5.675,4.595-5.675,7.996c0,3.404,0.625,8.08,5.675,8.08c4.932,0,5.608-4.675,5.608-8.08
					C622.578,338.846,621.902,334.251,616.97,334.251z"/>
				<path fill="#FFFFFF" d="M638.949,326.035h12.688v4.387h0.146c2.649-3.8,6.464-5.188,11.255-5.188c3.779,0,7.766,1.84,9.37,5.104
					c0.576-0.367,3.192-5.104,11.821-5.104c8.806,0,11.83,5.754,11.83,11.017v22.205h-13.182v-17.56
					c0-3.014-0.308-5.742-4.302-5.742c-3.376,0-4.484,2.448-4.484,5.742v17.56h-13.177v-17.56c0-3.014-0.324-5.742-4.326-5.742
					c-3.354,0-4.46,2.448-4.46,5.742v17.56h-13.18V326.035z"/>
				<path fill="#FFFFFF" d="M734.253,351.248c0,2.403,0.151,5.214,1.601,7.207h-13.429c-0.311-0.799-0.559-2.134-0.488-3.032h-0.076
					c-2.82,3.032-6.846,3.833-11.199,3.833c-6.605,0-12.105-2.935-12.105-9.746c0-10.264,12.776-9.864,19.476-11.065
					c1.81-0.364,3.597-0.802,3.597-2.842c0-2.257-2.169-3.066-4.307-3.066c-4.078,0-4.879,1.907-4.97,3.347h-12.196
					c0.127-4.615,2.523-7.269,5.982-8.729c3.293-1.521,7.717-1.921,11.726-1.921c16.541,0,16.39,6.405,16.39,12.735V351.248z
					 M721.628,343.963c-1.599,0.734-3.388,1.18-5.195,1.547c-2.972,0.563-4.481,1.345-4.481,3.463c0,1.475,1.777,3.071,4.177,3.071
					c2.925,0,5.314-1.718,5.5-5.153V343.963z"/>
				<path fill="#FFFFFF" d="M754.647,326.035h7.01v7.605h-7.01v11.335c0,3.072,0.71,4.281,4.044,4.281c0.969,0,1.983,0,2.966-0.112
					v9.311c-2.611,0-5.679,0.41-8.472,0.41c-5.595,0-11.729-0.801-11.729-9.639V333.64h-5.938v-7.605h5.938v-5.206l13.19-6.965
					V326.035z"/>
				<path fill="#FFFFFF" d="M776.749,322.542h-13.181v-8.642h13.181V322.542z M763.568,326.035h13.181v32.42h-13.181V326.035z"/>
			</g>
		</g>
	</g>
</g>
</svg>
