<?xml version="1.0" encoding="utf-8"?>
<!-- Generator: Adobe Illustrator 16.2.0, SVG Export Plug-In . SVG Version: 6.00 Build 0)  -->
<!DOCTYPE svg PUBLIC "-//W3C//DTD SVG 1.1//EN" "http://www.w3.org/Graphics/SVG/1.1/DTD/svg11.dtd">
<svg version="1.1" id="Layer_1" xmlns="http://www.w3.org/2000/svg" xmlns:xlink="http://www.w3.org/1999/xlink" x="0px" y="0px"
	 width="1024px" height="939.5px" viewBox="0 0 1024 939.5" enable-background="new 0 0 1024 939.5" xml:space="preserve">
<linearGradient id="Flood_gradient_1_" gradientUnits="userSpaceOnUse" x1="512.2056" y1="944.0859" x2="512.2055" y2="4.882813e-004">
	<stop  offset="0" style="stop-color:#21386E"/>
	<stop  offset="1" style="stop-color:#0B9EDA"/>
</linearGradient>
<rect id="Flood_gradient" x="0.239" fill="url(#Flood_gradient_1_)" width="1023.933" height="944.086"/>
<g id="company_gradient">
	<g>
		<defs>
			<polygon id="SVGID_1_" points="705.581,656.902 752.822,592.403 692.09,509.473 582.333,509.473 697.953,667.322 			"/>
		</defs>
		<clipPath id="SVGID_2_">
			<use xlink:href="#SVGID_1_"  overflow="visible"/>
		</clipPath>
		<linearGradient id="SVGID_3_" gradientUnits="userSpaceOnUse" x1="492.6792" y1="947.1191" x2="492.6792" y2="177.6558">
			<stop  offset="0" style="stop-color:#21386E"/>
			<stop  offset="1" style="stop-color:#0B9EDA"/>
		</linearGradient>
		<rect x="-40.137" y="177.655" clip-path="url(#SVGID_2_)" fill="url(#SVGID_3_)" width="1065.632" height="769.464"/>
		
			<polygon opacity="0.05" clip-path="url(#SVGID_2_)" fill="none" stroke="#FFFFFF" stroke-width="1.8135" stroke-miterlimit="10" points="
			705.581,656.902 752.822,592.403 692.09,509.473 582.333,509.473 697.953,667.322 		"/>
	</g>
	<g>
		<defs>
			<polygon id="SVGID_4_" points="883.514,504.84 920.074,534.583 815.331,677.581 814.992,677.124 814.992,677.155 
				760.298,602.464 705.581,677.155 502.553,954.374 612.289,954.374 760.253,752.346 814.959,827.035 869.859,752.039 
				869.807,751.965 988.848,590.517 1023.649,618.804 1023.649,454.187 			"/>
		</defs>
		<clipPath id="SVGID_5_">
			<use xlink:href="#SVGID_4_"  overflow="visible"/>
		</clipPath>
		<linearGradient id="SVGID_6_" gradientUnits="userSpaceOnUse" x1="492.6792" y1="947.1191" x2="492.6792" y2="177.6558">
			<stop  offset="0" style="stop-color:#21386E"/>
			<stop  offset="1" style="stop-color:#0B9EDA"/>
		</linearGradient>
		<rect x="-40.137" y="177.655" clip-path="url(#SVGID_5_)" fill="url(#SVGID_6_)" width="1065.632" height="769.464"/>
		
			<polygon opacity="0.05" clip-path="url(#SVGID_5_)" fill="none" stroke="#FFFFFF" stroke-width="1.8135" stroke-miterlimit="10" points="
			883.514,504.84 920.074,534.583 815.331,677.581 814.992,677.124 814.992,677.155 760.298,602.464 705.581,677.155 
			502.553,954.374 612.289,954.374 760.253,752.346 814.959,827.035 869.859,752.039 869.807,751.965 988.848,590.517 
			1023.649,618.804 1023.649,454.187 		"/>
	</g>
	<g>
		<defs>
			<polygon id="SVGID_7_" points="869.807,772.231 869.859,772.306 822.357,837.176 898.927,941.708 1008.676,941.708 
				877.197,762.198 			"/>
		</defs>
		<clipPath id="SVGID_8_">
			<use xlink:href="#SVGID_7_"  overflow="visible"/>
		</clipPath>
		<linearGradient id="SVGID_9_" gradientUnits="userSpaceOnUse" x1="492.6792" y1="947.1191" x2="492.6792" y2="177.6558">
			<stop  offset="0" style="stop-color:#21386E"/>
			<stop  offset="1" style="stop-color:#0B9EDA"/>
		</linearGradient>
		<rect x="-40.137" y="177.655" clip-path="url(#SVGID_8_)" fill="url(#SVGID_9_)" width="1065.632" height="769.464"/>
		
			<polygon opacity="0.05" clip-path="url(#SVGID_8_)" fill="none" stroke="#FFFFFF" stroke-width="1.8135" stroke-miterlimit="10" points="
			869.807,772.231 869.859,772.306 822.357,837.176 898.927,941.708 1008.676,941.708 877.197,762.198 		"/>
	</g>
	<g>
		<defs>
			<path id="SVGID_10_" d="M906.834,251.037c-96.868-43.054-159.342-22.866-200.941-0.394
				c-46.532-39.735-145.969-99.993-291.878-60.373c-144.732,39.282-194.891,140.156-212.113,199.555
				c-34.738,0.773-83.218,9.549-125.596,45.02c-53.026,44.387-64.9,93.93-66.904,122.327h91.813
				c2.322-12.234,9.826-32.511,33.622-52.419c39.5-33.067,93.368-22.226,93.53-22.184l52.182,11.932l3.485-53.409
				c0.073-1.238,9.676-123.713,153.86-162.844c144.482-39.191,223.353,55.187,226.424,58.951l30.074,38.136
				c0,0,58.909-89.795,167.235-48.715c77.825,34.267,85.832,113.625,83.011,138.11l80.857-29.222
				C1014.717,375.264,1003.702,294.083,906.834,251.037z"/>
		</defs>
		<clipPath id="SVGID_11_">
			<use xlink:href="#SVGID_10_"  overflow="visible"/>
		</clipPath>
		<linearGradient id="SVGID_12_" gradientUnits="userSpaceOnUse" x1="492.6792" y1="947.1191" x2="492.6792" y2="177.6558">
			<stop  offset="0" style="stop-color:#21386E"/>
			<stop  offset="1" style="stop-color:#0B9EDA"/>
		</linearGradient>
		<rect x="-40.137" y="177.655" clip-path="url(#SVGID_11_)" fill="url(#SVGID_12_)" width="1065.632" height="769.464"/>
		<path opacity="0.05" clip-path="url(#SVGID_11_)" fill="none" stroke="#FFFFFF" stroke-width="1.8135" stroke-miterlimit="10" d="
			M906.834,251.037c-96.868-43.054-159.342-22.866-200.941-0.394c-46.532-39.735-145.969-99.993-291.878-60.373
			c-144.732,39.282-194.891,140.156-212.113,199.555c-34.738,0.773-83.218,9.549-125.596,45.02
			c-53.026,44.387-64.9,93.93-66.904,122.327h91.813c2.322-12.234,9.826-32.511,33.622-52.419
			c39.5-33.067,93.368-22.226,93.53-22.184l52.182,11.932l3.485-53.409c0.073-1.238,9.676-123.713,153.86-162.844
			c144.482-39.191,223.353,55.187,226.424,58.951l30.074,38.136c0,0,58.909-89.795,167.235-48.715
			c77.825,34.267,85.832,113.625,83.011,138.11l80.857-29.222C1014.717,375.264,1003.702,294.083,906.834,251.037z"/>
	</g>
	<g>
		<defs>
			<path id="SVGID_13_" d="M9.401,597.107h108.611v36.813h1.137c22.745-32.005,55.731-43.753,96.676-43.753
				c31.854,0,65.973,15.473,79.614,43.212c4.538-3.188,27.28-43.212,100.654-43.212c75.631,0,101.209,49.088,101.209,93.896v189.934
				H384.706V724.058c0-26.125-2.829-49.58-36.948-49.58c-28.429,0-38.094,20.78-38.094,49.58v149.938h-112.61V724.058
				c0-26.125-2.84-49.58-36.961-49.58c-28.428,0-38.1,20.78-38.1,49.58v149.938H9.401V597.107z"/>
		</defs>
		<clipPath id="SVGID_14_">
			<use xlink:href="#SVGID_13_"  overflow="visible"/>
		</clipPath>
		<linearGradient id="SVGID_15_" gradientUnits="userSpaceOnUse" x1="492.6792" y1="947.1191" x2="492.6792" y2="177.6558">
			<stop  offset="0" style="stop-color:#21386E"/>
			<stop  offset="1" style="stop-color:#0B9EDA"/>
		</linearGradient>
		<rect x="-40.137" y="177.655" clip-path="url(#SVGID_14_)" fill="url(#SVGID_15_)" width="1065.632" height="769.464"/>
		<path opacity="0.05" clip-path="url(#SVGID_14_)" fill="none" stroke="#FFFFFF" stroke-width="3.627" stroke-miterlimit="10" d="
			M9.401,597.107h108.611v36.813h1.137c22.745-32.005,55.731-43.753,96.676-43.753c31.854,0,65.973,15.473,79.614,43.212
			c4.538-3.188,27.28-43.212,100.654-43.212c75.631,0,101.209,49.088,101.209,93.896v189.934H384.706V724.058
			c0-26.125-2.829-49.58-36.948-49.58c-28.429,0-38.094,20.78-38.094,49.58v149.938h-112.61V724.058
			c0-26.125-2.84-49.58-36.961-49.58c-28.428,0-38.1,20.78-38.1,49.58v149.938H9.401V597.107z"/>
	</g>
</g>
<g id="Macromatix_logo_6_">
	<g>
		<polygon fill="#0F5F93" points="668.109,500.426 674.728,491.438 666.261,479.815 650.817,479.815 667.085,501.878 		"/>
		<polygon fill="#0F5F93" points="693.092,479.078 698.19,483.309 683.542,503.358 683.493,503.276 683.486,503.276 675.8,492.787 
			668.109,503.279 639.642,542.142 655.08,542.142 675.791,513.861 683.484,524.291 691.124,513.809 691.124,513.791 
			707.839,491.092 712.742,495.073 712.742,472.02 		"/>
		<polygon fill="#0F5F93" points="691.124,516.646 691.124,516.661 684.461,525.713 695.169,540.311 710.608,540.311 
			692.179,515.169 		"/>
		<path fill="#0F5F93" d="M696.353,443.528c-13.611-6.045-22.412-3.209-28.182-0.078c-6.562-5.558-20.477-14.017-40.938-8.427
			c-20.24,5.559-27.354,19.617-29.77,28.022c-4.821,0.021-11.608,1.259-17.603,6.289c-7.372,6.158-9.055,13.153-9.292,17.124h12.881
			c0.309-1.755,1.304-4.597,4.688-7.397c5.51-4.573,13.042-3.083,13.072-3.073l7.354,1.699l0.508-7.448
			c0.004-0.234,1.28-17.381,21.56-22.829c20.19-5.582,31.287,7.644,31.671,8.212l4.252,5.395c0,0,8.207-12.646,23.395-6.833
			c10.928,4.805,12.024,15.897,11.627,19.272l11.375-4.005C711.473,461.009,709.949,449.567,696.353,443.528z"/>
		<path fill="#0F5F93" d="M303.007,491.871h12.691v4.387h0.178c2.616-3.8,6.559-5.188,11.358-5.188c3.639,0,7.635,1.84,9.229,5.104
			c0.582-0.367,3.193-5.104,11.851-5.104c8.875,0,11.802,5.754,11.802,11.017v22.204h-13.18v-17.559
			c0-3.014-0.307-5.742-4.302-5.742c-3.375,0-4.484,2.448-4.484,5.742v17.559h-13.177v-17.559c0-3.014-0.31-5.742-4.303-5.742
			c-3.375,0-4.482,2.448-4.482,5.742v17.559h-13.181V491.871z"/>
		<path fill="#0F5F93" d="M398.427,517.084c0,2.403,0.071,5.214,1.599,7.207h-13.533c-0.321-0.799-0.448-2.134-0.423-3.032h-0.116
			c-2.798,3.032-6.88,3.833-11.094,3.833c-6.744,0-12.245-2.935-12.245-9.745c0-10.264,12.777-9.864,19.476-11.065
			c1.865-0.364,3.602-0.802,3.602-2.842c0-2.257-2.135-3.066-4.312-3.066c-4.082,0-4.879,1.907-4.92,3.347h-12.251
			c0.242-4.615,2.643-7.269,5.989-8.729c3.375-1.521,7.772-1.921,11.851-1.921c16.448,0,16.377,6.405,16.377,12.735V517.084z
			 M385.692,509.799c-1.599,0.734-3.33,1.18-5.201,1.547c-2.833,0.563-4.413,1.344-4.413,3.462c0,1.475,1.708,3.071,4.104,3.071
			c3.064,0,5.375-1.718,5.509-5.153V509.799z"/>
		<path fill="#0F5F93" d="M425.187,504.253c-0.182-1.353-0.667-2.375-1.485-3.154c-0.801-0.644-1.974-1.011-3.305-1.011
			c-5.085,0-5.862,4.166-5.862,8.079c0,3.91,0.777,7.996,5.862,7.996c2.884,0,4.881-2.253,5.1-4.728h12.616
			c-0.633,4.364-2.785,7.74-5.986,10.105c-3.197,2.36-7.338,3.552-12.01,3.552c-10.41,0-18.761-6.736-18.761-16.926
			c0-10.29,8.351-17.096,18.761-17.096c9.067,0,16.813,4.203,17.614,13.183H425.187z"/>
		<path fill="#0F5F93" d="M440.985,491.871h12.744v5.204h0.037c2.178-3.886,4.971-6.005,9.766-6.005
			c1.377,0,2.604,0.208,3.829,0.489v10.978c-1.252-0.449-2.452-0.816-5.204-0.816c-5.198,0-7.991,2.896-7.991,9.767v12.804h-13.182
			V491.871z"/>
		<path fill="#0F5F93" d="M488.97,525.092c-13.04,0-18.853-8.008-18.853-17.009c0-9.005,5.813-17.013,18.853-17.013
			c12.918,0,18.802,8.008,18.802,17.013C507.771,517.084,501.888,525.092,488.97,525.092z M488.97,500.087
			c-5.051,0-5.675,4.595-5.675,7.996c0,3.404,0.625,8.079,5.675,8.079c4.932,0,5.608-4.675,5.608-8.079
			C494.578,504.682,493.902,500.087,488.97,500.087z"/>
		<path fill="#0F5F93" d="M510.949,491.871h12.688v4.387h0.146c2.649-3.8,6.464-5.188,11.255-5.188c3.779,0,7.766,1.84,9.37,5.104
			c0.576-0.367,3.192-5.104,11.821-5.104c8.806,0,11.83,5.754,11.83,11.017v22.204h-13.182v-17.559c0-3.014-0.308-5.742-4.302-5.742
			c-3.376,0-4.484,2.448-4.484,5.742v17.559h-13.177v-17.559c0-3.014-0.324-5.742-4.326-5.742c-3.354,0-4.46,2.448-4.46,5.742
			v17.559h-13.18V491.871z"/>
		<path fill="#0F5F93" d="M606.253,517.084c0,2.403,0.151,5.214,1.601,7.207h-13.429c-0.311-0.799-0.559-2.134-0.488-3.032h-0.076
			c-2.82,3.032-6.846,3.833-11.199,3.833c-6.605,0-12.105-2.935-12.105-9.745c0-10.264,12.776-9.864,19.476-11.065
			c1.81-0.364,3.597-0.802,3.597-2.842c0-2.257-2.169-3.066-4.307-3.066c-4.078,0-4.879,1.907-4.97,3.347h-12.196
			c0.127-4.615,2.523-7.269,5.982-8.729c3.293-1.521,7.717-1.921,11.726-1.921c16.541,0,16.39,6.405,16.39,12.735V517.084z
			 M593.628,509.799c-1.599,0.734-3.388,1.18-5.195,1.547c-2.972,0.563-4.481,1.344-4.481,3.462c0,1.475,1.777,3.071,4.177,3.071
			c2.925,0,5.314-1.718,5.5-5.153V509.799z"/>
		<path fill="#0F5F93" d="M626.647,491.871h7.01v7.605h-7.01v11.335c0,3.071,0.71,4.281,4.044,4.281c0.969,0,1.983,0,2.966-0.112
			v9.311c-2.611,0-5.679,0.41-8.472,0.41c-5.595,0-11.729-0.801-11.729-9.639v-15.586h-5.938v-7.605h5.938v-5.206l13.19-6.965
			V491.871z"/>
		<path fill="#0F5F93" d="M648.749,488.378h-13.181v-8.642h13.181V488.378z M635.568,491.871h13.181v32.42h-13.181V491.871z"/>
	</g>
	<g>
		<g>
			<g>
				<g>
					<polygon fill="#FFFFFF" points="668.109,495.007 674.728,486.019 666.261,474.396 650.817,474.396 667.085,496.459 					"/>
				</g>
				<polygon fill="#FFFFFF" points="693.092,473.659 698.19,477.889 683.542,497.939 683.493,497.856 683.486,497.856 
					675.8,487.367 668.109,497.86 639.642,536.723 655.08,536.723 675.791,508.442 683.484,518.872 691.124,508.39 691.124,508.372 
					707.839,485.672 712.742,489.653 712.742,466.601 				"/>
				<g>
					<polygon fill="#FFFFFF" points="691.124,511.227 691.124,511.242 684.461,520.294 695.169,534.892 710.608,534.892 
						692.179,509.75 					"/>
				</g>
			</g>
			<path fill="#FFFFFF" d="M696.353,438.109c-13.611-6.045-22.412-3.209-28.182-0.078c-6.562-5.558-20.477-14.017-40.938-8.427
				c-20.24,5.559-27.354,19.617-29.77,28.022c-4.821,0.021-11.608,1.259-17.603,6.289c-7.372,6.158-9.055,13.153-9.292,17.124
				h12.881c0.309-1.755,1.304-4.597,4.688-7.397c5.51-4.573,13.042-3.083,13.072-3.073l7.354,1.699l0.508-7.448
				c0.004-0.234,1.28-17.381,21.56-22.829c20.19-5.582,31.287,7.644,31.671,8.212l4.252,5.395c0,0,8.207-12.646,23.395-6.833
				c10.928,4.805,12.024,15.897,11.627,19.272l11.375-4.005C711.473,455.589,709.949,444.147,696.353,438.109z"/>
			<g>
				<path fill="#FFFFFF" d="M303.007,486.452h12.691v4.387h0.178c2.616-3.8,6.559-5.188,11.358-5.188
					c3.639,0,7.635,1.84,9.229,5.104c0.582-0.367,3.193-5.104,11.851-5.104c8.875,0,11.802,5.754,11.802,11.017v22.205h-13.18
					v-17.56c0-3.014-0.307-5.742-4.302-5.742c-3.375,0-4.484,2.448-4.484,5.742v17.56h-13.177v-17.56
					c0-3.014-0.31-5.742-4.303-5.742c-3.375,0-4.482,2.448-4.482,5.742v17.56h-13.181V486.452z"/>
				<path fill="#FFFFFF" d="M398.427,511.665c0,2.403,0.071,5.214,1.599,7.207h-13.533c-0.321-0.799-0.448-2.134-0.423-3.032h-0.116
					c-2.798,3.032-6.88,3.833-11.094,3.833c-6.744,0-12.245-2.935-12.245-9.746c0-10.264,12.777-9.864,19.476-11.065
					c1.865-0.364,3.602-0.802,3.602-2.842c0-2.257-2.135-3.066-4.312-3.066c-4.082,0-4.879,1.907-4.92,3.347h-12.251
					c0.242-4.615,2.643-7.269,5.989-8.729c3.375-1.521,7.772-1.921,11.851-1.921c16.448,0,16.377,6.405,16.377,12.735V511.665z
					 M385.692,504.38c-1.599,0.734-3.33,1.18-5.201,1.547c-2.833,0.563-4.413,1.345-4.413,3.463c0,1.475,1.708,3.071,4.104,3.071
					c3.064,0,5.375-1.718,5.509-5.153V504.38z"/>
				<path fill="#FFFFFF" d="M425.187,498.833c-0.182-1.353-0.667-2.375-1.485-3.154c-0.801-0.644-1.974-1.011-3.305-1.011
					c-5.085,0-5.862,4.166-5.862,8.079c0,3.911,0.777,7.997,5.862,7.997c2.884,0,4.881-2.253,5.1-4.728h12.616
					c-0.633,4.365-2.785,7.741-5.986,10.106c-3.197,2.36-7.338,3.552-12.01,3.552c-10.41,0-18.761-6.736-18.761-16.926
					c0-10.29,8.351-17.096,18.761-17.096c9.067,0,16.813,4.203,17.614,13.183H425.187z"/>
				<path fill="#FFFFFF" d="M440.985,486.452h12.744v5.204h0.037c2.178-3.886,4.971-6.005,9.766-6.005
					c1.377,0,2.604,0.208,3.829,0.489v10.978c-1.252-0.449-2.452-0.816-5.204-0.816c-5.198,0-7.991,2.896-7.991,9.767v12.804
					h-13.182V486.452z"/>
				<path fill="#FFFFFF" d="M488.97,519.673c-13.04,0-18.853-8.008-18.853-17.009c0-9.005,5.813-17.013,18.853-17.013
					c12.918,0,18.802,8.008,18.802,17.013C507.771,511.665,501.888,519.673,488.97,519.673z M488.97,494.668
					c-5.051,0-5.675,4.595-5.675,7.996c0,3.404,0.625,8.08,5.675,8.08c4.932,0,5.608-4.675,5.608-8.08
					C494.578,499.263,493.902,494.668,488.97,494.668z"/>
				<path fill="#FFFFFF" d="M510.949,486.452h12.688v4.387h0.146c2.649-3.8,6.464-5.188,11.255-5.188c3.779,0,7.766,1.84,9.37,5.104
					c0.576-0.367,3.192-5.104,11.821-5.104c8.806,0,11.83,5.754,11.83,11.017v22.205h-13.182v-17.56
					c0-3.014-0.308-5.742-4.302-5.742c-3.376,0-4.484,2.448-4.484,5.742v17.56h-13.177v-17.56c0-3.014-0.324-5.742-4.326-5.742
					c-3.354,0-4.46,2.448-4.46,5.742v17.56h-13.18V486.452z"/>
				<path fill="#FFFFFF" d="M606.253,511.665c0,2.403,0.151,5.214,1.601,7.207h-13.429c-0.311-0.799-0.559-2.134-0.488-3.032h-0.076
					c-2.82,3.032-6.846,3.833-11.199,3.833c-6.605,0-12.105-2.935-12.105-9.746c0-10.264,12.776-9.864,19.476-11.065
					c1.81-0.364,3.597-0.802,3.597-2.842c0-2.257-2.169-3.066-4.307-3.066c-4.078,0-4.879,1.907-4.97,3.347h-12.196
					c0.127-4.615,2.523-7.269,5.982-8.729c3.293-1.521,7.717-1.921,11.726-1.921c16.541,0,16.39,6.405,16.39,12.735V511.665z
					 M593.628,504.38c-1.599,0.734-3.388,1.18-5.195,1.547c-2.972,0.563-4.481,1.345-4.481,3.463c0,1.475,1.777,3.071,4.177,3.071
					c2.925,0,5.314-1.718,5.5-5.153V504.38z"/>
				<path fill="#FFFFFF" d="M626.647,486.452h7.01v7.605h-7.01v11.335c0,3.072,0.71,4.281,4.044,4.281c0.969,0,1.983,0,2.966-0.112
					v9.311c-2.611,0-5.679,0.41-8.472,0.41c-5.595,0-11.729-0.801-11.729-9.639v-15.586h-5.938v-7.605h5.938v-5.206l13.19-6.965
					V486.452z"/>
				<path fill="#FFFFFF" d="M648.749,482.958h-13.181v-8.642h13.181V482.958z M635.568,486.452h13.181v32.42h-13.181V486.452z"/>
			</g>
		</g>
	</g>
</g>
</svg>
